<svg width="166" height="166" viewBox="0 0 166 166" fill="none" xmlns="http://www.w3.org/2000/svg">
  <defs>
    <linearGradient id="g" x1="0" y1="0" x2="1" y2="1">
      <stop offset="0%" stop-color="#1a6b4a"/>
      <stop offset="100%" stop-color="#0d3b28"/>
    </linearGradient>
  </defs>
  <rect width="166" height="166" rx="32" fill="url(#g)"/>
  <!-- Leaf shape -->
  <path d="M83 30 C60 55 52 85 52 105 C52 118 62 130 75 132 L83 138 L91 132 C104 130 114 118 114 105 C114 85 106 55 83 30Z" fill="#e8f5e9" opacity="0.95"/>
  <!-- Leaf vein -->
  <path d="M83 40 L83 130" stroke="#1a6b4a" stroke-width="4" stroke-linecap="round"/>
  <path d="M83 60 C90 65 97 70 100 78" stroke="#1a6b4a" stroke-width="3" stroke-linecap="round" fill="none"/>
  <path d="M83 60 C76 65 69 70 66 78" stroke="#1a6b4a" stroke-width="3" stroke-linecap="round" fill="none"/>
  <path d="M83 80 C92 85 98 92 100 100" stroke="#1a6b4a" stroke-width="2.5" stroke-linecap="round" fill="none"/>
  <path d="M83 80 C74 85 68 92 66 100" stroke="#1a6b4a" stroke-width="2.5" stroke-linecap="round" fill="none"/>
  <!-- Water drop accent -->
  <path d="M130 50 C130 42 135 35 140 35 C145 35 150 42 150 50 C150 56 145 60 140 60 C135 60 130 56 130 50Z" fill="#4fc3f7" opacity="0.8"/>
</svg>
